<?xml version="1.0" standalone="no"?>
<!DOCTYPE svg PUBLIC "-//W3C//DTD SVG 1.1//EN" "http://www.w3.org/Graphics/SVG/1.1/DTD/svg11.dtd">
<!--Generator: Xara Designer (www.xara.com), SVG filter version: 4.0.0.1-->
<svg stroke-width="0.501" stroke-linejoin="bevel" fill-rule="evenodd" xmlns:xlink="http://www.w3.org/1999/xlink" xmlns="http://www.w3.org/2000/svg" version="1.1" overflow="visible" width="130pt" height="56.25pt" viewBox="0 0 130 56.25">
 <defs>
  <marker id="DefaultArrow2" markerUnits="strokeWidth" viewBox="0 0 1 1" markerWidth="1" markerHeight="1" overflow="visible" orient="auto">
   <!-- REF_ARROW_STRAIGHT (-2) -->
   <g transform="scale(0.0092592592)">
    <!-- 1/108 -->
    <path d="M -9 54 L -9 -54 L 117 0 z"/>
   </g>
  </marker>
  <marker id="DefaultArrow3" markerUnits="strokeWidth" viewBox="0 0 1 1" markerWidth="1" markerHeight="1" overflow="visible" orient="auto">
   <!-- REF_ARROW_ANGLED -->
   <g transform="scale(0.0092592592)">
    <path d="M -27 54 L -9 0 L -27 -54 L 135 0 z"/>
   </g>
  </marker>
  <marker id="DefaultArrow4" markerUnits="strokeWidth" viewBox="0 0 1 1" markerWidth="1" markerHeight="1" overflow="visible" orient="auto">
   <!-- REF_ARROW_ROUNDED -->
   <g transform="scale(0.0092592592)">
    <path d="M -9,0 L -9,-45 C -9,-51.708 2.808,-56.580 9,-54 L 117,-9 C 120.916,-7.369 126.000,-4.242 126,0 C 126,4.242 120.916,7.369 117,9 L 9,54 C 2.808,56.580 -9,51.708 -9,45 z"/>
   </g>
  </marker>
  <marker id="DefaultArrow5" markerUnits="strokeWidth" viewBox="0 0 1 1" markerWidth="1" markerHeight="1" overflow="visible" orient="auto">
   <!-- REF_ARROW_SPOT -->
   <g transform="scale(0.0092592592)">
    <path d="M -54, 0 C -54,29.807 -29.807,54 0,54 C 29.807,54 54,29.807 54,0 C 54,-29.807 29.807,-54 0,-54 C -29.807,-54 -54,-29.807 -54,0 z"/>
   </g>
  </marker>
  <marker id="DefaultArrow6" markerUnits="strokeWidth" viewBox="0 0 1 1" markerWidth="1" markerHeight="1" overflow="visible" orient="auto">
   <!-- REF_ARROW_DIAMOND -->
   <g transform="scale(0.0092592592)">
    <path d="M -63,0 L 0,63 L 63,0 L 0,-63 z"/>
   </g>
  </marker>
  <marker id="DefaultArrow7" markerUnits="strokeWidth" viewBox="0 0 1 1" markerWidth="1" markerHeight="1" overflow="visible" orient="auto">
   <!-- REF_ARROW_FEATHER -->
   <g transform="scale(0.0092592592)">
    <path d="M 18,-54 L 108,-54 L 63,0 L 108,54 L 18, 54 L -36,0 z"/>
   </g>
  </marker>
  <marker id="DefaultArrow8" markerUnits="strokeWidth" viewBox="0 0 1 1" markerWidth="1" markerHeight="1" overflow="visible" orient="auto">
   <!-- REF_ARROW_FEATHER2 -->
   <g transform="scale(0.0092592592)">
    <path d="M -36,0 L 18,-54 L 54,-54 L 18,-18 L 27,-18 L 63,-54 L 99,-54 L 63,-18 L 72,-18 L 108,-54 L 144,-54 L 90,0 L 144,54 L 108,54 L 72,18 L 63,18 L 99,54 L 63,54 L 27,18 L 18,18 L 54,54 L 18,54 z"/>
   </g>
  </marker>
  <marker id="DefaultArrow9" markerUnits="strokeWidth" viewBox="0 0 1 1" markerWidth="1" markerHeight="1" overflow="visible" orient="auto">
   <!-- REF_ARROW_HOLLOWDIAMOND -->
   <g transform="scale(0.0092592592)">
    <path d="M 0,45 L -45,0 L 0, -45 L 45, 0 z M 0, 63 L-63, 0 L 0, -63 L 63, 0 z"/>
   </g>
  </marker>
  <filter id="StainedFilter">
   <feBlend mode="multiply" in2="BackgroundImage" in="SourceGraphic" result="blend"/>
   <feComposite in="blend" in2="SourceAlpha" operator="in" result="comp"/>
  </filter>
  <filter id="BleachFilter">
   <feBlend mode="screen" in2="BackgroundImage" in="SourceGraphic" result="blend"/>
   <feComposite in="blend" in2="SourceAlpha" operator="in" result="comp"/>
  </filter>
  <filter id="InvertTransparencyBitmapFilter">
   <feComponentTransfer>
    <feFuncR type="gamma" amplitude="1.055" exponent=".416666666" offset="-0.055"/>
    <feFuncG type="gamma" amplitude="1.055" exponent=".416666666" offset="-0.055"/>
    <feFuncB type="gamma" amplitude="1.055" exponent=".416666666" offset="-0.055"/>
   </feComponentTransfer>
   <feComponentTransfer>
    <feFuncR type="linear" slope="-1" intercept="1"/>
    <feFuncG type="linear" slope="-1" intercept="1"/>
    <feFuncB type="linear" slope="-1" intercept="1"/>
    <feFuncA type="linear" slope="1" intercept="0"/>
   </feComponentTransfer>
   <feComponentTransfer>
    <feFuncR type="gamma" amplitude="1" exponent="2.4" offset="0"/>
    <feFuncG type="gamma" amplitude="1" exponent="2.4" offset="0"/>
    <feFuncB type="gamma" amplitude="1" exponent="2.4" offset="0"/>
   </feComponentTransfer>
  </filter>
 </defs>
 <g id="Document" fill="none" stroke="black" font-family="Times New Roman" font-size="16" transform="scale(1 -1)">
  <g id="Spread" transform="translate(0 -56.25)">
   <g id="Layer 1">
    <path d="M 50.245,14.523 C 49.568,14.846 48.991,15.27 48.512,15.796 C 48.033,16.321 47.661,16.922 47.396,17.599 C 47.13,18.276 46.998,18.973 46.998,19.691 C 46.998,20.42 47.135,21.122 47.411,21.799 C 47.687,22.475 48.072,23.071 48.567,23.586 C 49.061,24.102 49.646,24.513 50.323,24.82 C 51,25.127 51.739,25.28 52.54,25.28 C 53.362,25.28 54.112,25.119 54.788,24.796 C 55.465,24.474 56.042,24.047 56.521,23.516 C 57,22.985 57.37,22.382 57.63,21.705 C 57.89,21.029 58.02,20.342 58.02,19.644 C 58.02,18.916 57.882,18.213 57.606,17.537 C 57.331,16.86 56.948,16.264 56.459,15.749 C 55.97,15.234 55.387,14.82 54.71,14.508 C 54.034,14.195 53.295,14.039 52.493,14.039 C 51.671,14.039 50.922,14.201 50.245,14.523 Z M 62.804,14.492 C 62.179,14.794 61.672,15.197 61.281,15.702 C 60.891,16.207 60.605,16.792 60.423,17.458 C 60.241,18.125 60.15,18.822 60.15,19.551 L 60.15,25.218 L 62.71,25.218 L 62.71,19.551 C 62.71,19.124 62.752,18.718 62.835,18.333 C 62.918,17.948 63.053,17.604 63.241,17.302 C 63.428,17.001 63.67,16.761 63.967,16.584 C 64.263,16.407 64.63,16.319 65.068,16.319 C 65.505,16.319 65.874,16.41 66.176,16.592 C 66.478,16.774 66.722,17.016 66.91,17.318 C 67.097,17.62 67.23,17.966 67.308,18.356 C 67.386,18.747 67.425,19.145 67.425,19.551 L 67.425,25.218 L 69.986,25.218 L 69.986,19.551 C 69.986,18.78 69.889,18.062 69.697,17.396 C 69.504,16.73 69.207,16.147 68.807,15.647 C 68.406,15.148 67.896,14.755 67.277,14.469 C 66.657,14.182 65.921,14.039 65.068,14.039 C 64.183,14.039 63.428,14.19 62.804,14.492 Z M 36.373,14.133 L 36.373,25.218 L 41.369,25.218 C 41.889,25.218 42.371,25.109 42.813,24.89 C 43.255,24.672 43.638,24.385 43.96,24.031 C 44.283,23.678 44.535,23.277 44.718,22.829 C 44.9,22.382 44.991,21.929 44.991,21.471 C 44.991,21.127 44.949,20.797 44.866,20.48 C 44.783,20.162 44.663,19.863 44.507,19.582 C 44.351,19.301 44.161,19.048 43.937,18.825 C 43.713,18.601 43.461,18.411 43.18,18.255 L 45.615,14.133 L 42.727,14.133 L 40.604,17.708 L 38.933,17.708 L 38.933,14.133 L 36.373,14.133 Z M 72.776,14.133 L 72.776,25.218 L 74.774,25.218 L 79.942,18.708 L 79.942,25.218 L 82.502,25.218 L 82.502,14.133 L 80.441,14.133 L 75.336,20.472 L 75.336,14.133 L 72.776,14.133 Z M 85.429,14.133 L 85.429,25.218 L 89.566,25.218 C 90.482,25.218 91.283,25.072 91.97,24.781 C 92.657,24.489 93.232,24.094 93.696,23.594 C 94.159,23.095 94.507,22.509 94.742,21.838 C 94.976,21.167 95.093,20.451 95.093,19.691 C 95.093,18.848 94.963,18.086 94.703,17.404 C 94.442,16.722 94.07,16.139 93.586,15.655 C 93.102,15.171 92.519,14.797 91.838,14.531 C 91.156,14.266 90.399,14.133 89.566,14.133 L 85.429,14.133 Z M 97.411,14.133 L 97.411,25.218 L 99.409,25.218 L 104.577,18.708 L 104.577,25.218 L 107.137,25.218 L 107.137,14.133 L 105.076,14.133 L 99.971,20.472 L 99.971,14.133 L 97.411,14.133 Z M 110.064,14.133 L 110.064,25.218 L 117.714,25.218 L 117.714,22.97 L 112.624,22.97 L 112.624,20.815 L 116.996,20.815 L 116.996,18.739 L 112.624,18.739 L 112.624,16.381 L 117.854,16.381 L 117.854,14.133 L 110.064,14.133 Z M 123.542,14.133 L 123.542,22.97 L 120.154,22.97 L 120.154,25.218 L 129.475,25.218 L 129.475,22.97 L 126.103,22.97 L 126.103,14.133 L 123.542,14.133 Z M 53.789,16.615 C 54.153,16.813 54.455,17.071 54.695,17.388 C 54.934,17.706 55.114,18.065 55.233,18.466 C 55.353,18.866 55.413,19.275 55.413,19.691 C 55.413,20.118 55.35,20.532 55.225,20.932 C 55.101,21.333 54.913,21.687 54.663,21.994 C 54.414,22.301 54.109,22.546 53.75,22.728 C 53.391,22.91 52.977,23.001 52.509,23.001 C 52.02,23.001 51.595,22.905 51.236,22.712 C 50.877,22.52 50.575,22.267 50.331,21.955 C 50.086,21.643 49.904,21.286 49.784,20.885 C 49.665,20.485 49.605,20.076 49.605,19.66 C 49.605,19.233 49.667,18.819 49.792,18.419 C 49.917,18.018 50.102,17.661 50.346,17.349 C 50.591,17.037 50.896,16.787 51.26,16.6 C 51.624,16.412 52.04,16.319 52.509,16.319 C 52.998,16.319 53.425,16.418 53.789,16.615 Z M 90.815,16.631 C 91.179,16.798 91.484,17.029 91.728,17.326 C 91.973,17.622 92.16,17.971 92.29,18.372 C 92.421,18.773 92.486,19.212 92.486,19.691 C 92.486,20.18 92.421,20.625 92.29,21.026 C 92.16,21.427 91.97,21.773 91.721,22.064 C 91.471,22.356 91.164,22.579 90.799,22.736 C 90.435,22.892 90.024,22.97 89.566,22.97 L 87.989,22.97 L 87.989,16.381 L 89.566,16.381 C 90.034,16.381 90.451,16.464 90.815,16.631 Z M 42.056,20.37 C 42.274,20.656 42.384,21.023 42.384,21.471 C 42.384,21.929 42.259,22.293 42.009,22.564 C 41.759,22.834 41.488,22.97 41.197,22.97 L 38.933,22.97 L 38.933,19.941 L 41.275,19.941 C 41.577,19.941 41.837,20.084 42.056,20.37 Z M 38.988,30.108 C 38.316,30.436 37.739,30.871 37.255,31.412 C 36.771,31.953 36.396,32.567 36.131,33.254 C 35.865,33.941 35.733,34.638 35.733,35.346 C 35.733,36.012 35.857,36.676 36.107,37.337 C 36.357,37.998 36.721,38.588 37.2,39.109 C 37.679,39.629 38.262,40.051 38.949,40.373 C 39.636,40.696 40.416,40.857 41.291,40.857 C 42.331,40.857 43.234,40.634 43.999,40.186 C 44.764,39.739 45.334,39.156 45.709,38.437 L 43.742,37.064 C 43.617,37.355 43.458,37.597 43.266,37.79 C 43.073,37.982 42.862,38.138 42.633,38.258 C 42.404,38.378 42.17,38.461 41.931,38.508 C 41.691,38.555 41.457,38.578 41.228,38.578 C 40.739,38.578 40.312,38.479 39.948,38.281 C 39.584,38.084 39.282,37.829 39.042,37.516 C 38.803,37.204 38.626,36.85 38.512,36.455 C 38.397,36.059 38.34,35.658 38.34,35.252 C 38.34,34.815 38.408,34.394 38.543,33.988 C 38.678,33.582 38.873,33.223 39.128,32.911 C 39.383,32.598 39.69,32.351 40.049,32.169 C 40.409,31.987 40.812,31.896 41.259,31.896 C 41.488,31.896 41.725,31.924 41.97,31.982 C 42.214,32.039 42.449,32.127 42.672,32.247 C 42.896,32.367 43.102,32.523 43.289,32.715 C 43.476,32.908 43.627,33.145 43.742,33.426 L 45.834,32.192 C 45.667,31.786 45.42,31.422 45.092,31.1 C 44.764,30.777 44.387,30.506 43.96,30.288 C 43.534,30.069 43.081,29.903 42.602,29.788 C 42.123,29.674 41.655,29.616 41.197,29.616 C 40.396,29.616 39.659,29.78 38.988,30.108 Z M 71.26,30.108 C 70.588,30.436 70.011,30.871 69.527,31.412 C 69.043,31.953 68.668,32.567 68.403,33.254 C 68.137,33.941 68.005,34.638 68.005,35.346 C 68.005,36.012 68.129,36.676 68.379,37.337 C 68.629,37.998 68.993,38.588 69.472,39.109 C 69.951,39.629 70.534,40.051 71.221,40.373 C 71.908,40.696 72.688,40.857 73.563,40.857 C 74.603,40.857 75.506,40.634 76.271,40.186 C 77.036,39.739 77.606,39.156 77.981,38.437 L 76.014,37.064 C 75.889,37.355 75.73,37.597 75.538,37.79 C 75.345,37.982 75.134,38.138 74.905,38.258 C 74.676,38.378 74.442,38.461 74.203,38.508 C 73.963,38.555 73.729,38.578 73.5,38.578 C 73.011,38.578 72.584,38.479 72.22,38.281 C 71.856,38.084 71.554,37.829 71.314,37.516 C 71.075,37.204 70.898,36.85 70.784,36.455 C 70.669,36.059 70.612,35.658 70.612,35.252 C 70.612,34.815 70.68,34.394 70.815,33.988 C 70.95,33.582 71.145,33.223 71.4,32.911 C 71.655,32.598 71.962,32.351 72.321,32.169 C 72.681,31.987 73.084,31.896 73.531,31.896 C 73.76,31.896 73.997,31.924 74.242,31.982 C 74.486,32.039 74.721,32.127 74.944,32.247 C 75.168,32.367 75.374,32.523 75.561,32.715 C 75.748,32.908 75.899,33.145 76.014,33.426 L 78.106,32.192 C 77.939,31.786 77.692,31.422 77.364,31.1 C 77.036,30.777 76.659,30.506 76.232,30.288 C 75.806,30.069 75.353,29.903 74.874,29.788 C 74.395,29.674 73.927,29.616 73.469,29.616 C 72.668,29.616 71.931,29.78 71.26,30.108 Z M 47.296,29.71 L 47.296,31.63 L 53.073,38.547 L 47.515,38.547 L 47.515,40.795 L 56.024,40.795 L 56.024,38.875 L 50.528,31.958 L 56.086,31.958 L 56.086,29.71 L 47.296,29.71 Z M 58.485,29.71 L 58.485,40.795 L 66.135,40.795 L 66.135,38.547 L 61.045,38.547 L 61.045,36.392 L 65.417,36.392 L 65.417,34.316 L 61.045,34.316 L 61.045,31.958 L 66.275,31.958 L 66.275,29.71 L 58.485,29.71 Z M 80.193,29.71 L 80.193,40.795 L 82.753,40.795 L 82.753,36.502 L 87.172,36.502 L 87.172,40.795 L 89.732,40.795 L 89.732,29.71 L 87.172,29.71 L 87.172,34.253 L 82.753,34.253 L 82.753,29.71 L 80.193,29.71 Z" fill="#ffffff" stroke-linejoin="miter" stroke-linecap="round" stroke-width="0.75" stroke="none" marker-start="none" marker-end="none" stroke-miterlimit="79.8403193612775"/>
    <path d="M 0.004,26.702 C -0.171,34.163 5.74,40.359 13.201,40.536 C 20.664,40.711 26.86,34.799 27.036,27.338 C 27.212,19.877 21.3,13.68 13.838,13.504 C 6.378,13.329 0.181,19.24 0.004,26.702 Z M 19.47,18.349 L 20.694,19.193 L 14.276,22.596 L 8.909,17.447 L 10.359,16.989 C 11.433,16.65 12.581,16.48 13.767,16.509 C 15.884,16.557 17.844,17.232 19.47,18.349 Z M 6.413,19.218 L 19.443,31.716 L 3.033,25.945 L 3.164,25.192 C 3.52,23.163 4.456,21.34 5.79,19.893 L 6.413,19.218 Z M 22.575,21.597 L 22.984,22.437 C 23.693,23.894 24.072,25.539 24.032,27.267 C 24.012,28.128 23.889,28.962 23.673,29.761 L 23.277,31.23 L 16.56,24.787 L 22.575,21.597 Z M 3.022,29.127 L 20.381,35.231 L 18.636,36.206 C 17.051,37.092 15.214,37.578 13.272,37.532 C 8.956,37.43 5.309,34.737 3.778,30.982 L 3.022,29.127 Z" fill="#ffffff" stroke-width="4.5" stroke="none" fill-rule="evenodd" stroke-linejoin="miter" marker-start="none" marker-end="none" stroke-miterlimit="79.8403193612775"/>
   </g>
  </g>
 </g>
</svg>
